<svg xmlns="http://www.w3.org/2000/svg" version="1.1" xmlns:xlink="http://www.w3.org/1999/xlink" xmlns:svgjs="http://svgjs.dev/svgjs" width="1000" height="1000" viewBox="0 0 1000 1000"><rect width="1000" height="1000" fill="#ed1703"></rect><g transform="matrix(0.7,0,0,0.7,149.57605563665675,401.5059575083675)"><svg viewBox="0 0 396 112" data-background-color="#ed1703" preserveAspectRatio="xMidYMid meet" height="282" width="1000" xmlns="http://www.w3.org/2000/svg" xmlns:xlink="http://www.w3.org/1999/xlink"><g id="tight-bounds" transform="matrix(1,0,0,1,0.24008861730862918,-0.116710950613367)"><svg viewBox="0 0 395.52 112.2335662745098" height="112.2335662745098" width="395.52"><g><svg viewBox="0 0 395.52 112.2335662745098" height="112.2335662745098" width="395.52"><g><svg viewBox="0 0 395.52 112.2335662745098" height="112.2335662745098" width="395.52"><g id="textblocktransform"><svg viewBox="0 0 395.52 112.2335662745098" height="112.2335662745098" width="395.52" id="textblock"><g><svg viewBox="0 0 395.52 112.2335662745098" height="112.2335662745098" width="395.52"><path d="M394.594 24.072C392.735 12.422 387.435 9.184 387.435 9.184 371.165-2.816 350.86-0.23 332.619 1.495 300.414 1.565 268.339 4.127 236.208 5.502 168.767 5.712 100.749 2.264 33.643 10.768 27.339 13.377-6.54 11.28 1.121 25.563 3.129 31.505 10.456 38.098 10.232 43.55 11.236 44.506 12.631 42.316 13.226 43.69 15.309 47.395 18.711 45.647 21.501 47.838 17.614 53.686 20.403 58.555 23.062 63.658 18.377 64.986 12.371 64.357 9.675 68.761 9.396 71.953 7.89 71.347 6.235 71.207 5.026 71.114 2.59 71.463 2.999 72.465 4.394 75.89-1.594 77.871 2.162 81.226-0.422 84.861 3.948 88.006 3.353 91.944 3.278 92.736 3.687 93.412 4.338 93.598 7.22 94.6 3.018 96.557 3.464 98.677 33.029 113.17 65.104 103.151 95.394 109.815 103.259 105.155 97.346 111.469 100.489 110.49 102.943 109.349 104.728 114.078 107.499 111.399 107.927 110.63 107.276 108.813 108.8 109.162 109.6 109.349 110.307 109.302 110.418 108.23 110.586 106.622 109.117 107.624 108.726 106.786 112.947 102.545 111.906 112.634 115.866 112.214 115.68 110.979 114.528 109.209 116.889 109.442 119.232 107.671 119.306 106.203 121.389 110.187 121.463 111.049 121.835 111.655 122.43 112.075 128.938 107.741 135.409 113.612 142.233 111.655 146.417 109.512 150.433 112.82 154.672 112.005 156.16 111.352 157.666 110.187 159.098 112.144 176.632 112.564 195.319 110.816 211.943 112.214 256.364 109.605 303.835 113.286 350.674 109.838 361.719 108.51 373.192 106.622 383.958 105.108 383.958 105.108 392.679 100.961 392.679 82.321S394.538 66.011 394.817 51.169C395.096 36.328 396.398 35.722 394.538 24.072Z" opacity="1" fill="#ffffff" data-fill-palette-color="tertiary"></path><g transform="matrix(1,0,0,1,55.76832,26.230666666666668)"><svg width="283.98335999999995" viewBox="4 -34 163.19000244140625 34.349998474121094" height="59.77223294117646" data-palette-color="#ed1703"><path d="M12.65-12.8L12.65-12.8 7.1-12.8 7.1 0 4 0 4-33.7 12.1-33.7Q18-33.7 21.38-30.73 24.75-27.75 24.75-22.9L24.75-22.9Q24.75-18.7 21.48-15.75 18.2-12.8 12.65-12.8ZM12.45-30.95L12.45-30.95 7.1-30.95 7.1-15.55 13-15.55Q16.95-15.55 19.28-17.65 21.6-19.75 21.6-22.9L21.6-22.9Q21.6-26.6 19.2-28.78 16.8-30.95 12.45-30.95ZM50.1-8.7L50.1-8.7Q50.1-4.3 47.15-1.98 44.2 0.35 39.6 0.35L39.6 0.35Q34.4 0.35 30.75-1.85L30.75-1.85 30.75-5.3Q32.25-4.15 34.62-3.4 37-2.65 39.45-2.65L39.45-2.65Q43-2.65 44.97-4.2 46.95-5.75 46.95-8.65L46.95-8.65Q46.95-10.85 45.45-12.23 43.95-13.6 41.1-14.85L41.1-14.85Q40.7-15.05 39.35-15.63 38-16.2 37.45-16.45 36.9-16.7 35.75-17.3 34.6-17.9 34.07-18.35 33.55-18.8 32.75-19.55 31.95-20.3 31.6-21.05 31.25-21.8 30.95-22.83 30.65-23.85 30.65-25L30.65-25Q30.65-29.25 33.7-31.63 36.75-34 41.15-34L41.15-34Q45.35-34 48.15-32.5L48.15-32.5 48.15-29.05Q46.95-29.85 45-30.4 43.05-30.95 41.2-30.95L41.2-30.95Q37.85-30.95 35.85-29.38 33.85-27.8 33.85-25.2L33.85-25.2Q33.85-23.85 34.37-22.8 34.9-21.75 36.15-20.88 37.4-20 38.32-19.53 39.25-19.05 41.15-18.25L41.15-18.25Q42.9-17.5 43.8-17.07 44.7-16.65 46.1-15.75 47.5-14.85 48.22-13.98 48.95-13.1 49.52-11.73 50.1-10.35 50.1-8.7ZM80.84-33.7L69.34-12.6 69.34 0 66.25 0 66.25-12.6 54.84-33.7 58.39-33.7 61.05-28.75 67.8-15.75Q68.19-16.7 74.64-28.75L74.64-28.75 77.3-33.7 80.84-33.7ZM89.44-14.25L89.44 0 86.34 0 86.34-33.7 90.59-33.7 99.19-19.45 108.69-3.65Q108.59-8.85 108.59-19.4L108.59-19.4 108.59-33.7 111.69-33.7 111.69 0 107.44 0 98.89-14.15 89.34-30.05Q89.44-24.65 89.44-14.25L89.44-14.25ZM143.19-33.7L131.69-12.6 131.69 0 128.59 0 128.59-12.6 117.19-33.7 120.74-33.7 123.39-28.75 130.14-15.75Q130.54-16.7 136.99-28.75L136.99-28.75 139.64-33.7 143.19-33.7ZM167.19-33.7L167.19-30.85 157.84-30.85 157.84 0 154.74 0 154.74-30.85 145.44-30.85 145.44-33.7 167.19-33.7Z" opacity="1" transform="matrix(1,0,0,1,0,0)" fill="#ed1703" class="wordmark-text-0" data-fill-palette-color="quaternary" id="text-0"></path></svg></g></svg></g></svg></g></svg></g><g></g></svg></g><defs></defs></svg><rect width="395.52" height="112.2335662745098" fill="none" stroke="none" visibility="hidden"></rect></g></svg></g></svg>